<?xml version="1.0" encoding="UTF-8"?>
<svg width="512pt" version="1.1" xmlns="http://www.w3.org/2000/svg" height="512pt" viewBox="0 0 512 512" xmlns:xlink="http://www.w3.org/1999/xlink">
 <defs>
  <clipPath id="Clip0">
   <path d="M0 0 L303 0 L303 280 L0 280 L0 0 Z" transform="translate(105, 112)"/>
  </clipPath>
 </defs>
 <g id="背景">
  <g id="グループ16" clip-path="url(#Clip0)">
   <path style="fill:#eec635; fill-rule:nonzero;stroke:none;" d="M269.029 28.0031 C266.433 23.8434 271.575 12.2318 272.74 9.28295 C273.904 6.34201 283.094 0 288.797 4.314 C294.497 8.63011 303 26.4605 297.978 31.6558 C292.957 36.8412 277.111 65.6098 277.578 84.9933 C278.049 104.405 294.313 124.564 262.377 186.976 C229.547 251.108 148.418 280 104.226 271.805 C60.0421 263.589 20.7002 230.059 8.56568 206.421 C9.45951 206.051 0 186.179 19.0528 178.107 C34.1993 171.673 53.5384 167.76 80.7209 173.989 C100.768 178.585 181.122 167.552 213.85 126.107 C246.573 84.6822 251.599 79.4763 253.929 73.5971 C256.263 67.7105 275.378 38.1753 269.029 28.0031 Z" transform="translate(105, 112)"/>
   <path style="fill:#071408; fill-rule:nonzero;stroke:none;" d="M60.5565 43.1416 C56.9628 40.9899 52.7029 40.576 49.4041 37.6993 C46.0882 34.8021 23.0713 25.6018 20.9699 23.4396 C18.8637 21.2546 16.0403 20.7071 15.6824 14.1261 C15.3201 7.5345 11.9373 3.46531 9.56368 1.25198 C8.21159 0 6.61428 2.12067 5.28319 2.68138 C3.94782 3.25946 4.50855 4.37771 3.16889 4.94578 C1.8378 5.51438 0 10.09 0.472847 13.5654 C0.948266 17.0333 0.751496 28.2932 4.20075 30.8077 C7.65257 33.3316 7.66115 24.99 12.084 20.3549 C13.9848 18.3679 14.9369 21.2236 17.1892 22.5709 C19.4857 23.946 18.799 25.4781 20.6033 27.4756 C22.4098 29.463 24.9636 29.2956 29.3071 31.4268 C33.642 33.5607 39.5532 34.7816 49.1988 39.9027 C54.7126 42.8331 54.4464 43.597 59.9872 46.4553 C63.9603 48.5044 86.1524 52.6841 98.7997 54.8874 C98.8374 54.3194 98.7161 55.3344 98.7997 54.8874 C85.6671 51.9902 63.1943 44.7153 60.5565 43.1416 Z M138.261 58.2833 C134.941 58.5944 127.879 54.1314 119.828 53.864 C117.417 53.8024 118.311 57.5272 108.006 55.4787 C107.627 55.3965 106.716 55.5813 105.215 55.2497 C104.87 55.3113 105.352 55.0238 105.253 55.4271 C105.153 55.8514 105.048 54.9596 105.297 55.3344 C106.712 55.5813 107.407 56.7923 107.549 56.8233 C108.596 56.9902 116.693 59.1625 119.226 59.3062 C121.763 59.4531 121.896 54.7948 125.042 57.1339 C127.354 58.3759 127.188 59.1009 129.7 59.4736 C135.184 60.2807 132.99 58.417 140.75 59.412 C148.503 60.4039 181.71 45.8746 186.173 43.9698 C190.617 42.0981 200.867 36.1262 204.723 33.8692 C208.001 31.967 214.612 26.7301 216.478 25.0027 C214.316 26.679 208.549 29.2651 199.369 35.4012 C189.294 42.1081 151.204 57.0829 138.261 58.2833 Z M216.891 25.2596 C217.215 24.949 216.891 25.2185 217.207 25.1053 C217.081 25.2801 217.098 25.0953 216.891 25.2596 Z" transform="translate(113.25, 293.493)"/>
   <path style="fill:#071408; fill-rule:nonzero;stroke:none;" d="M7.70101 1.41887 C9.50109 2.49342 8.50267 3.60114 11.3033 4.25451 C14.1061 4.89471 11.873 6.30305 14.347 7.08962 C16.8107 7.88672 15.9422 7.26441 15.4835 7.72982 C15.0252 8.18523 14.2694 11.4884 11.9065 9.04603 C9.53881 6.61421 7.9668 6.34412 6.51825 5.81711 C5.05084 5.288 4.12573 4.4909 4.12573 4.4909 C0.670045 3.02307 0 2.61925 0.100742 1.64526 C0.198913 0.693905 0.757927 0 1.42754 0.403286 C2.10573 0.807098 7.70101 1.41887 7.70101 1.41887 Z" transform="translate(158.323, 328.905)"/>
   <path style="fill:#071408; fill-rule:nonzero;stroke:none;" d="M10.1879 2.76351 C9.29403 2.22386 7.17587 1.19038 6.15215 1.03612 C3.02056 0.506477 0.998422 0 0.998422 0 C0.998422 0 0 0.424345 2.57901 1.62473 C5.15759 2.82511 7.63414 4.29558 7.63414 4.29558 C7.63414 4.29558 10.0957 4.39877 10.9831 4.26504 C11.8812 4.10815 10.1879 2.76351 10.1879 2.76351 Z" transform="translate(195.547, 343.786)"/>
   <path style="fill:#071408; fill-rule:nonzero;stroke:none;" d="M0 5.76341 C0 5.76341 4.1193 4.47037 5.01741 4.32401 C5.90694 4.17975 7.80133 4.20028 8.70372 4.13868 C11.2742 3.97179 13.2834 3.807 13.2834 3.807 C13.2834 3.807 14.5103 3.51638 15.402 3.37265 C16.3001 3.21839 20.0679 0 19.4103 1.6758 C18.7574 3.32105 17.422 3.88913 16.3083 4.59356 C15.1928 5.288 14.0791 5.30853 14.0791 5.30853 C10.9539 5.48332 8.49452 6.06403 8.49452 6.06403 L6.4951 6.91272 L5.72089 8.15417 L4.73918 7.61716 C4.51112 7.55293 4.29763 7.4908 4.10686 7.4292 C2.67932 6.95379 2.2502 6.48838 2.2502 6.48838 " transform="translate(249.261, 345.288)"/>
   <path style="fill:#071408; fill-rule:nonzero;stroke:none;" d="M0.674332 1.77846 C0 1.37517 0.548725 0 1.77735 0.393283 C3.01627 0.786566 1.5763 2.316 0.674332 1.77846 Z" transform="translate(237.825, 325.419)"/>
   <path style="fill:#071408; fill-rule:nonzero;stroke:none;" d="M0.673903 1.77899 C0 1.37833 0.55044 0 1.78121 0.393809 C3.01242 0.787092 1.57416 2.31916 0.673903 1.77899 Z" transform="translate(179.954, 349.902)"/>
   <path style="fill:#071408; fill-rule:nonzero;stroke:none;" d="M3.17317 4.6141 C0.265789 4.94578 0 0 4.69717 0.752871 C9.40035 1.5189 3.17317 4.6141 3.17317 4.6141 Z" transform="translate(285.312, 306.378)"/>
   <path style="fill:#071408; fill-rule:nonzero;stroke:none;" d="M2.49927 3.02043 C0.462558 2.95883 0 0 3.35322 0.848691 C6.70688 1.69685 2.49927 3.02043 2.49927 3.02043 Z" transform="translate(162.932, 300.002)"/>
   <path style="fill:#071408; fill-rule:nonzero;stroke:none;" d="M6.02612 7.23124 C3.72147 5.58599 0 0 3.59372 2.14121 C7.19216 4.29294 15.291 10.0463 18.2863 11.838 C21.2858 13.627 34.1736 22.2471 44.6272 23.936 C55.0701 25.6324 58.0658 27.4219 58.0658 27.4219 C58.0658 27.4219 64.1798 29.005 66.1308 29.5015 C71.5105 30.9103 79.8665 32.2545 87.6177 31.4268 C96.558 31.3036 77.5053 34.491 66.7713 33.527 C56.027 32.5656 21.0282 18.0257 6.02612 7.23124 Z" transform="translate(147.242, 351.301)"/>
   <path style="fill:#071408; fill-rule:nonzero;stroke:none;" d="M5.1533 29.4399 C1.55529 27.2881 0 19.9927 0 19.9927 L0.506713 9.37561 L3.73433 3.11573 C3.73433 3.11573 3.40981 0.185322 9.3712 0.102664 C15.3287 0.0310625 16.8231 0 19.5423 4.3577 C22.2632 8.72277 26.1819 13.7944 27.7016 17.4371 C29.2235 21.0799 30.1966 29.8463 26.9103 28.7997 C23.6239 27.743 21.5645 31.0546 21.5645 31.0546 L18.6485 38.4248 L12.9739 37.7615 L10.9205 41.0931 C10.9205 41.0931 10.8742 35.5892 8.47352 34.1598 C6.0767 32.7225 5.1533 29.4399 5.1533 29.4399 Z" transform="translate(376.068, 114.856)"/>
   <path style="fill:#071408; fill-rule:nonzero;stroke:none;" d="M29.0541 2.19333 C29.0541 2.19333 22.6281 21.679 24.7526 25.6739 C26.8751 29.6689 29.5754 41.0831 27.8401 47.3245 C26.1129 53.5739 23.0443 60.8388 23.0443 60.8388 L18.7471 68.8698 C18.7471 68.8698 19.0296 74.7258 16.3713 77.6847 C13.713 80.6461 13.9788 85.127 13.9788 85.127 L9.5894 94.0988 C9.5894 94.0988 6.42437 97.721 5.72517 100.328 C3.44968 108.875 0 109.891 1.94069 106.155 C3.87066 102.441 4.27663 100.256 5.73332 96.5823 C7.19044 92.8985 10.127 87.3714 11.2952 84.4331 C12.4569 81.4948 14.7697 73.754 16.5406 71.1758 C18.3013 68.5997 21.4954 58.6665 23.5553 55.3323 C25.6066 52.0213 28.4385 42.4814 26.8455 35.8156 C24.7565 27.0491 21.8114 26.0778 22.6615 22.0417 C23.53 18.0057 28.4342 0 29.0541 2.19333 Z" transform="translate(352.749, 174.319)"/>
   <path style="fill:#071408; fill-rule:nonzero;stroke:none;" d="M3.26363 4.4193 C0 7.01539 5.01355 0 5.01355 0 C5.01355 0 6.5204 1.80952 3.26363 4.4193 Z" transform="translate(345.835, 318.236)"/>
   <path style="fill:#071408; fill-rule:nonzero;stroke:none;" d="M3.80549 5.47279 C0 3.97389 2.26263 0 5.55327 1.05402 C8.83962 2.11014 8.28489 7.24388 3.80549 5.47279 Z" transform="translate(246.854, 309.316)"/>
   <path style="fill:#071408; fill-rule:nonzero;stroke:none;" d="M1.69333 3.51901 C0 3.08203 1.52185 0 3.00384 0.205328 C4.48368 0.413816 3.68203 4.01549 1.69333 3.51901 Z" transform="translate(263.834, 333.159)"/>
   <path style="fill:#071408; fill-rule:nonzero;stroke:none;" d="M1.16175 2.4213 C0 2.12067 1.04472 0 2.06415 0.14373 C3.08358 0.269559 2.52242 2.77351 1.16175 2.4213 Z" transform="translate(145.031, 331.254)"/>
   <path style="fill:#071408; fill-rule:nonzero;stroke:none;" d="M1.16175 2.4213 C0 2.1312 1.04858 0 2.06372 0.14373 C3.08315 0.290619 2.52628 2.76351 1.16175 2.4213 Z" transform="translate(125.878, 317.802)"/>
   <path style="fill:#071408; fill-rule:nonzero;stroke:none;" d="M4.82921 5.79447 C0 2.91777 1.20162 0 5.08642 1.40624 C8.97809 2.83564 7.22988 7.24177 4.82921 5.79447 Z" transform="translate(204.229, 324.177)"/>
   <path style="fill:#071408; fill-rule:nonzero;stroke:none;" d="M2.05558 2.47342 C0 0.558072 0.366531 0 1.9887 1.28304 C3.60658 2.56555 3.08358 3.43741 2.05558 2.47342 Z" transform="translate(177.363, 330.799)"/>
   <path style="fill:#071408; fill-rule:nonzero;stroke:none;" d="M2.06158 2.8767 C0 0.971888 0.619459 0 2.30036 1.19038 C3.9894 2.3597 3.08101 3.83806 2.06158 2.8767 Z" transform="translate(193.393, 330.83)"/>
   <path style="fill:#071408; fill-rule:nonzero;stroke:none;" d="M4.67402 5.14427 C0 4.37771 5.22446 0 7.62128 1.4394 C10.0245 2.86617 8.85634 5.80448 4.67402 5.14427 Z" transform="translate(218.116, 361.275)"/>
   <path style="fill:#071408; fill-rule:nonzero;stroke:none;" d="M1.24363 1.36464 C0 1.15932 1.38596 0 2.01785 0.382753 C2.65446 0.766033 2.34666 1.54207 1.24363 1.36464 Z" transform="translate(205.569, 355.843)"/>
   <path style="fill:#071408; fill-rule:nonzero;stroke:none;" d="M19.9191 6.60368 C19.0819 11.4779 16.1617 19.8305 13.5368 26.4526 C10.9119 33.0847 7.09827 40.8251 3.55428 44.1593 C0 47.5014 7.34306 34.5863 9.3862 29.442 C11.4289 24.2877 21.0475 0 19.9191 6.60368 Z" transform="translate(359.381, 258.534)"/>
   <path style="fill:#071408; fill-rule:nonzero;stroke:none;" d="M4.47125 0 C5.60771 2.72981 8.58841 10.6581 11.3055 15.0258 C14.0225 19.3704 2.39467 9.91262 1.19305 4.98737 C0 0.0721282 4.47125 0 4.47125 0 Z" transform="translate(116.257, 319.313)"/>
   <path style="fill:#071408; fill-rule:nonzero;stroke:none;" d="M1.94669 3.81016 C0 5.73287 2.12888 0 4.96725 0.642836 C7.80347 1.28304 3.32836 2.42182 1.94669 3.81016 Z" transform="translate(211.821, 353.11)"/>
   <path style="fill:#071408; fill-rule:nonzero;stroke:none;" d="M5.99954 0.539645 C5.99954 0.539645 3.12945 4.96895 1.5703 4.69939 C0 4.44983 3.99412 0 5.99954 0.539645 Z" transform="translate(246.539, 377.553)"/>
   <path style="fill:#071408; fill-rule:nonzero;stroke:none;" d="M6.7506 0.609141 C8.46066 1.05402 7.85791 7.63506 3.9311 6.08456 C0 4.5525 4.39795 0 6.7506 0.609141 Z" transform="translate(140.522, 303.915)"/>
  </g>
 </g>
</svg>
